<svg width="150" height="152" viewBox="0 0 150 152" fill="none" xmlns="http://www.w3.org/2000/svg">
<path d="M22.3331 23.0306C8.22063 37.1972 0.309104 56.386 0.33648 76.3818C0.351541 77.616 0.851907 78.7947 1.73013 79.662C2.60836 80.5299 3.79255 81.0159 5.02671 81.0159C6.26158 81.0159 7.44576 80.5299 8.32398 79.662C9.20222 78.7947 9.7026 77.616 9.71766 76.3818C9.69781 58.8584 16.6346 42.0428 29.0036 29.6299C35.0081 23.4653 42.1866 18.5656 50.1159 15.2197C58.0446 11.8745 66.5633 10.1509 75.1689 10.1509C83.7746 10.1509 92.2933 11.8745 100.222 15.2197C108.151 18.5656 115.329 23.4653 121.334 29.6299C133.687 42.0551 140.62 58.8639 140.62 76.3845C140.62 93.9056 133.687 110.714 121.334 123.14C115.364 129.257 108.24 134.128 100.373 137.471C92.5068 140.814 84.055 142.563 75.5077 142.615C73.6828 142.558 71.9524 141.79 70.6854 140.475C69.4183 139.16 68.7154 137.402 68.7263 135.576C68.7366 133.75 69.4601 132.001 70.7422 130.701C72.0243 129.401 73.7636 128.653 75.5892 128.617C75.7582 128.617 75.9273 128.608 76.095 128.589C89.0988 128.17 101.437 122.741 110.531 113.436C120.134 103.768 125.523 90.6952 125.523 77.069C125.523 63.4425 120.134 50.3698 110.531 40.7025C105.839 35.8966 100.234 32.0777 94.0446 29.4704C87.8554 26.8632 81.2069 25.5201 74.4912 25.5201C67.7755 25.5201 61.1269 26.8632 54.9376 29.4705C48.7489 32.0777 43.1435 35.8966 38.4519 40.7025C28.8339 50.3596 23.442 63.4391 23.4612 77.069C23.4413 79.2157 23.8473 81.3458 24.655 83.335C25.4634 85.3239 26.6572 87.1333 28.1686 88.6584C29.6799 90.1835 31.4781 91.3941 33.4598 92.2203C35.4414 93.0465 37.5668 93.4718 39.7141 93.4718C41.8614 93.4718 43.9868 93.0465 45.9685 92.2203C47.9501 91.3941 49.7483 90.1835 51.2597 88.6584C52.7711 87.1333 53.9649 85.3239 54.7733 83.335C55.581 81.3458 55.9869 79.2157 55.9671 77.069C55.9671 76.9321 55.9582 76.8034 55.9472 76.672C55.9582 76.5406 55.9671 76.4092 55.9671 76.275C55.9363 72.5321 57.0185 68.8645 59.0761 65.737C61.1331 62.6102 64.073 60.1651 67.5222 58.7112C70.9715 57.258 74.7753 56.8617 78.4497 57.5729C82.1248 58.2848 85.5054 60.0714 88.163 62.7074C90.8206 65.3434 92.6353 68.7091 93.3768 72.3781C94.1184 76.0471 93.7533 79.8536 92.3281 83.3145C90.9028 86.7759 88.4815 89.7356 85.3714 91.8185C82.2613 93.9013 78.6024 95.0133 74.8595 95.0134C74.2386 95.0059 73.6226 95.1217 73.0469 95.354C72.4712 95.5864 71.9476 95.9307 71.5061 96.367C71.0646 96.8033 70.7134 97.3229 70.4745 97.8958C70.235 98.4686 70.1117 99.0832 70.1117 99.704C70.1117 100.325 70.235 100.939 70.4745 101.512C70.7134 102.085 71.0646 102.605 71.5061 103.041C71.9476 103.477 72.4712 103.822 73.0469 104.054C73.6226 104.286 74.2386 104.402 74.8595 104.395C80.4143 104.364 85.8358 102.688 90.4396 99.5797C95.0434 96.4711 98.6233 92.0686 100.728 86.9276C102.832 81.7867 103.367 76.1374 102.264 70.6928C101.161 65.2483 98.471 60.2527 94.5321 56.3353C90.5932 52.4186 85.5824 49.7558 80.1316 48.6832C74.6815 47.6113 69.035 48.1774 63.906 50.3103C58.777 52.4432 54.3941 56.0471 51.3111 60.6682C48.228 65.2894 46.5832 70.7202 46.5832 76.275C46.5832 76.4119 46.5921 76.5406 46.603 76.672C46.5921 76.8034 46.5832 76.9349 46.5832 77.069C46.6016 77.9829 46.4374 78.8912 46.0999 79.7414C45.7631 80.5908 45.2593 81.365 44.62 82.0173C43.98 82.6704 43.2161 83.1892 42.3735 83.5431C41.5308 83.897 40.6252 84.0794 39.7114 84.0794C38.7976 84.0794 37.892 83.897 37.0494 83.5431C36.2067 83.1892 35.4428 82.6704 34.8028 82.0173C34.1635 81.365 33.6597 80.5908 33.3229 79.7414C32.9854 78.8912 32.8211 77.9829 32.8396 77.069C32.8273 65.9102 37.2444 55.2031 45.1211 47.2991C48.9399 43.3755 53.5063 40.2576 58.5504 38.1281C63.5945 35.9986 69.0145 34.902 74.4898 34.902C79.9645 34.902 85.3843 35.9986 90.4285 38.1281C95.4726 40.2576 100.039 43.3755 103.858 47.2991C111.724 55.21 116.139 65.9129 116.139 77.069C116.139 88.2251 111.724 98.9279 103.858 106.839C100.036 110.757 95.4695 113.873 90.4266 116.002C85.3838 118.131 79.9666 119.23 74.4926 119.236C74.0716 119.237 73.6527 119.295 73.2468 119.409C69.2534 120.021 65.6275 122.086 63.0634 125.208C60.4992 128.33 59.1781 132.288 59.3533 136.324C59.5286 140.36 61.1885 144.189 64.0135 147.077C66.8384 149.965 70.6299 151.708 74.661 151.972C74.8294 151.99 74.9991 152 75.1689 152C75.2634 152 75.3571 152 75.4516 152C75.4981 152 75.5433 152 75.5885 152C75.6337 152 75.6802 151.995 75.7254 151.993C85.4769 151.916 95.1167 149.91 104.089 146.09C113.062 142.27 121.189 136.712 128.003 129.736C142.092 115.554 150 96.3754 150 76.3845C150 56.3942 142.092 37.2156 128.003 23.034C121.126 15.987 112.909 10.3864 103.835 6.5634C94.7612 2.73974 85.0141 0.769735 75.1675 0.769736C65.3209 0.769737 55.5742 2.73974 46.4997 6.56341C37.4258 10.3864 29.209 15.987 22.3318 23.034L22.3331 23.0306Z" fill="white"/>
</svg>
